<?xml version="1.0" encoding="UTF-8" standalone="no"?>
<!-- Created with Inkscape (http://www.inkscape.org/) -->

<svg
   width="127.36467mm"
   height="128.89871mm"
   viewBox="0 0 127.36467 128.89871"
   version="1.1"
   id="svg1"
   xml:space="preserve"
   xmlns:xlink="http://www.w3.org/1999/xlink"
   xmlns="http://www.w3.org/2000/svg"
   xmlns:svg="http://www.w3.org/2000/svg"><defs
     id="defs1"><linearGradient
       id="linearGradient111"><stop
         style="stop-color:#d5d5d5;stop-opacity:1;"
         offset="0.44936433"
         id="stop110" /><stop
         style="stop-color:#686868;stop-opacity:0;"
         offset="1"
         id="stop111" /></linearGradient><linearGradient
       id="linearGradient108"><stop
         style="stop-color:#fcd001;stop-opacity:1;"
         offset="0.44936433"
         id="stop108" /><stop
         style="stop-color:#fcd001;stop-opacity:0;"
         offset="1"
         id="stop109" /></linearGradient><linearGradient
       xlink:href="#linearGradient108"
       id="linearGradient109"
       x1="567.86383"
       y1="-112.78596"
       x2="583.58875"
       y2="-112.78596"
       gradientUnits="userSpaceOnUse" /><linearGradient
       xlink:href="#linearGradient111"
       id="linearGradient110"
       gradientUnits="userSpaceOnUse"
       x1="567.86383"
       y1="-112.78596"
       x2="583.58875"
       y2="-112.78596"
       gradientTransform="translate(-27.743713,8.8032934)" /></defs><g
     id="layer1"
     transform="translate(196.72518,-88.137683)"><g
       id="g1"
       transform="translate(354.62156,0.71137725)"><g
         id="g98"
         transform="translate(-1037.8994,310.87186)"><path
           id="path101"
           style="fill:#eeeeee;fill-opacity:1;stroke:#f3f3f3;stroke-width:0.429097;stroke-miterlimit:5.3"
           transform="rotate(-90,363.51377,-674.38563)"
           d="m -104.56572,-443.47477 c -4.00616,4.32355 -7.57486,6.72973 -12.33222,9.54076 -11.29919,6.67646 -25.21824,10.38392 -38.1951,9.64414 -14.16128,-0.8073 -29.18098,-6.7976 -39.56083,-15.83429 -25.8089,-22.4692 -28.17433,-63.37113 -4.75211,-89.60841 13.29807,-14.89634 31.94253,-22.10992 50.46281,-21.23231 13.72626,0.65043 28.16696,5.68932 39.60127,15.70789 12.112839,10.61309 18.771198,24.41033 20.774356,39.21972 2.371547,17.53291 -1.983809,36.33295 -14.415206,50.78927" /><path
           style="display:inline;fill:#d5d5d5;fill-opacity:1;stroke:none;stroke-width:0.766069;stroke-linecap:round;stroke-miterlimit:5.3;stroke-dasharray:none;stroke-opacity:1"
           d="m -535.32533,178.55532 c 0,0 23.26658,22.94114 39.31664,21.16903 0.81442,-0.0899 3.8939,5.12156 8.82032,8.28424 0.22934,0.32321 -10.11573,0.99882 -21.51249,-1.37813 -5.5734,-1.16241 -14.28124,-5.00604 -18.2985,-9.96886 -4.79125,-5.91899 -6.86145,-12.96161 -8.32597,-18.10628 z"
           id="path111"
           transform="translate(1037.8994,-310.87186)" /><path
           style="display:inline;fill:#d5d5d5;fill-opacity:1;stroke:none;stroke-width:0.766069;stroke-linecap:round;stroke-miterlimit:5.3;stroke-dasharray:none;stroke-opacity:1"
           d="m 519.29144,-175.35486 c 0,0 1.3648,-0.49885 1.58255,0.12942 2.12562,6.13287 12.33211,40.01536 12.63308,40.84135 3.56665,9.78851 16.70436,33.65325 6.81383,23.28675 -12.86719,-13.48639 -18.50951,-39.71945 -19.17061,-42.59128 -1.70833,-7.42106 -2.35062,-16.38819 -1.85885,-21.66624 z"
           id="path116"
           transform="translate(7.0833335e-6)" /><path
           style="display:inline;fill:#b2b2b2;fill-opacity:1;stroke:none;stroke-width:0.766069;stroke-linecap:round;stroke-miterlimit:5.3;stroke-dasharray:none;stroke-opacity:1"
           d="m 510.93275,-114.26534 c 0,0 19.25647,11.56949 35.40406,11.56544 4.19347,-0.001 4.96097,3.876656 9.88739,7.03933 0.22934,0.323219 -10.09135,0.878788 -21.51249,-1.378129 -12.22061,-2.548781 -16.99951,-8.422291 -23.77896,-17.226641 z"
           id="path107"
           transform="translate(7.0833335e-6)" /><path
           d="m 561.08979,-95.922022 c -5.6391,1.04131 -12.02737,1.04753 -17.73171,0.56545 -4.88599,-0.41236 -19.10157,-4.380657 -19.80895,-5.783828"
           style="display:inline;fill:none;fill-opacity:1;stroke:#113aba;stroke-linecap:round;stroke-opacity:1"
           id="path1-0"
           transform="translate(7.0833335e-6)" /><path
           style="fill:none;fill-opacity:1;stroke:#ffffff;stroke-width:1.9;stroke-miterlimit:5.3;stroke-dasharray:none;stroke-opacity:1"
           d="m 562.34774,-135.57238 c 0,0 10.25921,-7.0564 24.64102,-22.85315 3.40198,-3.73668 8.28765,-11.80514 10.71324,-15.16907 7.55564,-10.47852 6.74071,-19.53991 6.74071,-19.53991"
           id="path115"
           transform="translate(7.0833335e-6)" /><path
           style="display:inline;fill:#d5d5d5;fill-opacity:1;stroke:none;stroke-width:0.766069;stroke-linecap:round;stroke-miterlimit:5.3;stroke-dasharray:none;stroke-opacity:1"
           d="m -472.16375,182.85992 c 0,0 3.64507,1.31915 8.91897,0.008 4.99901,-1.40578 22.76146,-14.27092 27.92346,-18.91512 6.17378,-5.55449 11.60785,-20.51175 10.37464,-19.71735 -0.68882,0.44372 2.37939,10.91488 -0.60409,15.33429 -1.6507,4.31948 -5.86581,8.91168 -13.60715,17.60695 -3.78578,4.25228 -17.88584,15.60684 -24.23946,16.2389 -2.61504,0.26015 -7.72628,-8.50677 -8.76637,-10.55604 z"
           id="path113"
           transform="translate(1037.8994,-310.87186)" /><path
           style="fill:#b2b2b2;fill-opacity:1;stroke:none;stroke-width:0.766069;stroke-linecap:round;stroke-miterlimit:5.3;stroke-dasharray:none;stroke-opacity:1"
           d="m -471.12354,186.29154 c 0,0 0.15492,-2.69886 1.43971,-1.16773 2.36584,2.81946 12.14439,0.68858 23.11403,-6.13014 9.15656,-5.69171 15.35878,-13.07709 21.69883,-22.57441 0.64367,3.78825 -23.0999,32.95667 -43.28139,32.33785 -1.04681,-0.2394 -2.97118,-2.46557 -2.97118,-2.46557 z"
           id="path114"
           transform="translate(1037.8994,-310.87186)" /><path
           style="fill:#fcd001;fill-opacity:1;stroke:#b88412;stroke-opacity:1"
           d="m 559.91073,-96.233888 c 0,0.237716 -3.54867,0.501571 -5.05143,-0.324216 -3.54505,-1.948067 -6.1723,-6.802636 -8.89932,-9.668326 -13.69736,-16.53728 -18.37245,-27.71121 -23.55059,-48.20678 -1.08288,-2.62154 -2.58109,-18.5552 -1.92602,-20.89221 -2.67254,-0.0636 -3.83192,-0.48563 -8.17641,0.2224 -8.75313,1.56962 -18.77776,4.83028 -23.80413,12.8103 -3.2843,-0.63216 0.38675,-8.30745 0.3636,-11.47774 1.60429,-6.26809 3.54878,-12.96545 7.83914,-17.88315 17.57072,-12.32028 31.7699,-10.88201 46.69831,-11.11929 18.89488,0.69124 25.50479,6.87137 27.47162,7.76518 6.96314,3.73711 1.0817,7.2929 -2.03025,10.17797 -4.74682,5.30354 -10.09929,10.01807 -15.48364,14.64347 -2.6095,6.13704 2.62162,12.45791 3.17264,18.69422 2.86745,10.21516 6.24112,20.58773 12.73699,29.13869 7.95916,0.38064 15.07529,-4.19849 21.89463,-7.70981 9.13223,-5.60539 16.75142,-13.66939 21.76992,-23.14149 -0.84062,15.71275 -8.62681,30.7485 -20.03038,41.44412 -8.70648,7.99716 -19.6759,14.250339 -31.53347,15.618775 l -0.73106,-0.04228 -0.73015,-0.04984 z"
           id="path100" /><path
           style="fill:#f1bd01;fill-opacity:1;stroke:none;stroke-width:1.1;stroke-linecap:round;stroke-miterlimit:5.3;stroke-dasharray:none;stroke-opacity:1"
           d="m 491.00191,-179.20185 c 2.03494,-6.86293 1.45159,7.94996 4.56531,5.36715 0.83763,10.60851 7.17109,4.47233 1.48622,7.92198 -6.00039,3.64111 -8.41807,4.20974 -9.17162,2.44386 -0.67405,-1.57959 -0.1567,-4.68191 3.12009,-15.73299 z"
           id="path112"
           transform="translate(7.0833335e-6)" /><path
           style="fill:#f1bd01;fill-opacity:1;stroke:none;stroke-width:1.1;stroke-linecap:round;stroke-miterlimit:5.3;stroke-dasharray:none;stroke-opacity:1"
           d="m 541.28637,-112.80662 c 0,0 19.28148,0.91694 25.31772,-1.09513 3.75793,-1.25263 21.74363,-7.25677 32.53085,-17.59206 5.16877,-4.95222 11.93917,-17.4773 12.72643,-19.2427 0.83763,10.60851 -10.953,37.21726 -31.5768,47.78068 -20.62381,10.563416 -28.16911,3.898398 -28.16911,3.898398 z"
           id="path106"
           transform="translate(7.0833335e-6)" /><path
           style="fill:#e19b01;fill-opacity:1;stroke:none;stroke-width:1.1;stroke-linecap:round;stroke-miterlimit:5.3;stroke-dasharray:none;stroke-opacity:1"
           d="m -490.09105,206.34409 c 0,0 12.91456,0.71283 19.1438,-0.58377 7.10331,-1.47854 30.46652,-14.0038 34.99369,-19.53701 4.52718,-5.53322 -2.29502,11.75808 -22.91882,22.3215 -20.62381,10.56341 -26.09416,4.3071 -26.09416,4.3071 z"
           id="path104"
           transform="translate(1037.8994,-310.87186)" /><path
           style="fill:#e19b01;fill-opacity:1;stroke:none;stroke-width:1.1;stroke-linecap:round;stroke-miterlimit:5.3;stroke-dasharray:none;stroke-opacity:1"
           d="m 573.88893,-192.69014 c 0,0 -7.61155,8.39877 -11.33581,11.89201 -4.76952,4.47366 -9.10253,7.70357 -12.78123,12.1614 1.12407,6.96163 10.8949,32.04146 10.8949,32.04146 l 0.88029,-0.44015 z"
           id="path105"
           transform="translate(7.0833335e-6)" /><path
           style="fill:#1955d1;fill-opacity:1;stroke:#113aba;stroke-opacity:1"
           d="m 521.47877,-101.87497 c -21.18418,-10.88138 -35.06801,-34.45264 -34.40321,-58.23862 1.9263,-4.77051 6.86495,-7.74147 10.96953,-10.5296 6.6419,-3.30904 2.55847,6.36709 1.94722,9.93449 -1.43089,19.36501 3.13113,40.50987 17.47998,54.43156 1.16659,1.35948 10.7029,8.201751 4.00648,4.40217 z m 39.55736,-35.42756 c -3.46128,-10.2203 -6.66791,-20.55606 -8.79331,-31.14688 4.29126,-5.63424 10.63825,-9.28049 15.15565,-14.75116 5.12566,-5.94365 10.84179,-11.9248 13.56908,-19.40983 -0.0498,-6.20726 -8.8733,-7.31918 -13.07069,-10.59506 -11.10765,-5.28893 -23.58548,-7.99011 -35.86246,-6.10234 -2.4662,0.28114 -7.55654,1.21877 -2.55381,-0.36752 5.98726,-1.58363 12.18871,-2.26467 18.30041,-3.1191 17.57228,-1.30547 36.34285,5.95257 48.58921,18.43036 2.9173,2.97243 4.84407,6.17106 7.09324,9.67303 1.68989,7.1101 -3.72265,13.96397 -6.65994,20.07234 -4.73555,7.23762 -10.01389,14.19117 -15.88679,20.47647 -5.39835,6.23154 -11.96334,11.30443 -17.78314,17.07246 -0.53735,0.60132 -1.78665,0.7162 -2.09745,-0.23277 z m -16.2287,-85.03461 c -1.1993,-0.3938 -1.92572,0.97338 0,0 z"
           id="path99" /><path
           style="fill:none;fill-opacity:1;stroke:#b88412;stroke-width:1.1;stroke-miterlimit:5.3;stroke-dasharray:none;stroke-opacity:1"
           d="m 569.09237,-122.44784 c 0,0 3.6484,6.19925 6.27333,9.46973 2.62494,3.27047 8.62863,8.19883 8.62863,8.19883"
           id="path102" /><path
           style="fill:none;fill-opacity:1;stroke:#b88412;stroke-width:1.1;stroke-miterlimit:5.3;stroke-dasharray:none;stroke-opacity:1"
           d="m 552.22702,-168.64817 c 0,0 -7.36134,-3.75337 -16.94176,-5.4685 -9.58041,-1.71512 -19.90568,-1.41235 -19.90568,-1.41235"
           id="path103" /><path
           style="fill:none;fill-opacity:1;stroke:url(#linearGradient109);stroke-width:1.1;stroke-miterlimit:5.3;stroke-dasharray:none"
           d="m 568.33784,-121.69331 c 0,0 3.6484,6.19925 6.27333,9.46973 2.62494,3.27047 8.62863,8.19883 8.62863,8.19883"
           id="path108" /><path
           style="fill:none;fill-opacity:1;stroke:url(#linearGradient110);stroke-width:1.1;stroke-miterlimit:5.3;stroke-dasharray:none"
           d="m 539.71385,-112.26125 c 0,0 4.52867,5.75912 7.15361,9.02959 2.22725,2.77499 7.27182,6.426694 8.74922,7.469482 0.2638,0.186194 0.41387,0.289211 0.41387,0.289211"
           id="path109" /></g></g></g></svg>
